PathFileType	4	(X/Y/Z)	/Users/niels/Desktop/University/Third Semester/Perception and Action/Exam/Gymnastics Motion Tracking/Code for Gym Tracking/Scripts/Analyzed Data/kraft_bad_id5_2_nmspeed_Sports2D/kraft_bad_id5_2_nmspeed_Sports2D_px_person00.trc
DataRate	CameraRate	NumFrames	NumMarkers	Units	OrigDataRate	OrigDataStartFrame	OrigNumFrames
49.54128440366972	49.54128440366972	7	22	m	49.54128440366972	0	109
Frame#	Time	Hip			RHip			RKnee			RAnkle			RBigToe			RSmallToe			RHeel			LHip			LKnee			LAnkle			LBigToe			LSmallToe			LHeel			Neck			Head			Nose			RShoulder			RElbow			RWrist			LShoulder			LElbow			LWrist		
		X1	Y1	Z1	X2	Y2	Z2	X3	Y3	Z3	X4	Y4	Z4	X5	Y5	Z5	X6	Y6	Z6	X7	Y7	Z7	X8	Y8	Z8	X9	Y9	Z9	X10	Y10	Z10	X11	Y11	Z11	X12	Y12	Z12	X13	Y13	Z13	X14	Y14	Z14	X15	Y15	Z15	X16	Y16	Z16	X17	Y17	Z17	X18	Y18	Z18	X19	Y19	Z19	X20	Y20	Z20	X21	Y21	Z21	X22	Y22	Z22
0	0.0	0.01743530060705418	-0.5719777076514746	0.0	0.0049998722820414785	-0.5762891611115796	0.0	0.11138534450982246	-0.6708239933926311	0.0	0.033418094855613076	-0.8099486434131965	0.0	0.08267309475647007	-0.8478744036160636	0.0	0.06302954833571518	-0.8506519807356591	0.0	0.012483634738117106	-0.8226748051323841	0.0	0.02848413533333853	-0.5790250381190226	0.0	0.0010847707007077797	-0.7125687592056231	0.0	0.02184983296874987	-0.8139411925851319	0.0	0.07708669841537216	-0.8431022184924977	0.0	0.15355007191801276	-0.7876607640588669	0.0	-0.17629848923289435	-0.8936908135118817	0.0	0.06504747260800309	-0.37817238479412124	0.0	0.09168564495139402	-0.29690413502434226	0.0	0.11126310603600371	-0.34743339376844545	0.0	0.010217730455681397	-0.3978603804587295	0.0	0.00046453351564922004	-0.4760789746874881	0.0	0.022184340208009187	-0.523865338402127	0.0	0.10130244017006675	-0.4205967149418035	0.0	0.13330408697896706	-0.5144607394154196	0.0	0.1768529362935163	-0.587465411250387	0.0
1	0.020185185185185188	0.032023261370391354	-0.5674667479136905	0.0	0.01800293223139495	-0.5706346193483758	0.0	0.13133758726561168	-0.6674968610724857	0.0	0.06875345606270812	-0.8100707580075075	0.0	0.12023637674754152	-0.8441798383241871	0.0	0.10188042793567674	-0.8484953308733202	0.0	0.04968573128622375	-0.8253604637073708	0.0	0.044037563414646874	-0.5737012063224779	0.0	0.008990805243412288	-0.7108815674483047	0.0	0.05366757618339901	-0.8177637161368011	0.0	0.06774303477673849	-0.8396914492539868	0.0	0.13418238288964202	-0.7893835190632681	0.0	-0.15746404664546015	-0.8788819050706378	0.0	0.08129822431964497	-0.3756777601194471	0.0	0.10706121421277638	-0.29306737959392504	0.0	0.12646852115584742	-0.34428174780154036	0.0	0.026972695586213204	-0.3944107106839493	0.0	0.009308865662995184	-0.47415759883308173	0.0	0.022514033396913245	-0.5256100215813396	0.0	0.11774192825987974	-0.4162445555090651	0.0	0.15499948277272	-0.506881493878166	0.0	0.2033093868134982	-0.5784269043881549	0.0
2	0.040370370370370376	0.04691881024566287	-0.5632755368422557	0.0	0.03157343471603187	-0.5654383786160476	0.0	0.1508707932527136	-0.6647254257377707	0.0	0.10264798702964008	-0.8104769205459573	0.0	0.15624207603831552	-0.8408882824187128	0.0	0.1391022784166218	-0.846600311829716	0.0	0.08537337295993531	-0.8280511722861313	0.0	0.05974828045272103	-0.5687647951600414	0.0	0.018035661883480394	-0.7094772165102599	0.0	0.08282951473252573	-0.8214921954259488	0.0	0.05844726103186273	-0.8363094316868145	0.0	0.11502263229953792	-0.7911435219551339	0.0	-0.138583969334642	-0.8640554737477627	0.0	0.09756815461699661	-0.3733172487953801	0.0	0.12246340564758196	-0.28943553797927135	0.0	0.14177813105464515	-0.341259854299695	0.0	0.04383616329189151	-0.3911841662230864	0.0	0.019292459005377016	-0.4725538114001459	0.0	0.024479986408345165	-0.527595881316095	0.0	0.13424500224921362	-0.412039591627722	0.0	0.17691679414724673	-0.49918172365108304	0.0	0.2300335248271943	-0.5688122862269787	0.0
3	0.060555555555555564	0.06238052656306842	-0.5596543198409192	0.0	0.04613426419043286	-0.5610282686507454	0.0	0.1695851749354733	-0.6629466078330071	0.0	0.13378042341310525	-0.8113791534466273	0.0	0.1892387223464634	-0.8383666937302642	0.0	0.17318104395867986	-0.8452108437006812	0.0	0.11812987393019365	-0.8307497243520598	0.0	0.07578330412065307	-0.5644835115759251	0.0	0.029314458252086787	-0.7084751253623783	0.0	0.10699851331836834	-0.8248920266743274	0.0	0.049539090792008855	-0.8329681841865763	0.0	0.09654739205684387	-0.7929172011529086	0.0	-0.11951115156138638	-0.8492626127599603	0.0	0.11387854482432232	-0.3711735665727944	0.0	0.1379549405730849	-0.2861585701804941	0.0	0.1572879622644145	-0.33845362817217445	0.0	0.06089042249065567	-0.3883241085862155	0.0	0.0313769998834894	-0.47140271583807297	0.0	0.029688272692964132	-0.5298634066335752	0.0	0.15084047977384535	-0.4080793292779273	0.0	0.19916508249345066	-0.4912140572849537	0.0	0.2571433123236913	-0.5580966115734006	0.0
4	0.08074074074074075	0.07849694187769429	-0.5567854336482206	0.0	0.061810531874016514	-0.5575790670303828	0.0	0.1870866100081337	-0.6624651992333789	0.0	0.16100989660703724	-0.8129342415545142	0.0	0.2179669771845745	-0.8369116493972963	0.0	0.20280213376939826	-0.8445460711719932	0.0	0.14670011712670888	-0.8334924682714399	0.0	0.0922350803567064	-0.5610053083445113	0.0	0.043722380196685715	-0.7079202398999319	0.0	0.12432887784039212	-0.8274266295400979	0.0	0.0415186041102115	-0.8296674490234115	0.0	0.07941943700624025	-0.7946634530426059	0.0	-0.1000100224353131	-0.834567991151866	0.0	0.1302060181670206	-0.36932880171353727	0.0	0.15354499157053905	-0.2833677190460651	0.0	0.1730190079672697	-0.3359539282923228	0.0	0.07811376484812398	-0.3859484133745498	0.0	0.04616210050933083	-0.47071739217566205	0.0	0.03963091590587055	-0.5322212492931048	0.0	0.1675219334903495	-0.4044694592060802	0.0	0.22173275646374824	-0.4828571143311489	0.0	0.2845988480817959	-0.5458456010534883	0.0
5	0.10092592592592595	0.0951584087795043	-0.5547538437661043	0.0	0.07840933792357357	-0.5551146584264307	0.0	0.20301844871619518	-0.6634099526710722	0.0	0.18352678006745013	-0.8152132334980158	0.0	0.2415377443678258	-0.8366707086685599	0.0	0.22702741072518023	-0.8447327298994791	0.0	0.17018716466474673	-0.8363320981641623	0.0	0.10910286915471785	-0.5583677386905865	0.0	0.06180848151029727	-0.7077809716351788	0.0	0.1338092444467016	-0.8281440812206655	0.0	0.03507333725819137	-0.8263940648415214	0.0	0.06451650400177847	-0.7963170824119888	0.0	-0.07976535208603984	-0.8200667206890863	0.0	0.14649575531431908	-0.3678639327126277	0.0	0.16920807770397595	-0.28115879824308443	0.0	0.18893694404061076	-0.3338527543721768	0.0	0.09541676156168523	-0.38414074758890293	0.0	0.06385542617292705	-0.47037866992441213	0.0	0.055409088559385526	-0.5341398169248269	0.0	0.18425925594627227	-0.40129723955925933	0.0	0.2445055405134848	-0.4740301807354804	0.0	0.31219428675001987	-0.5317540687245356	0.0
6	0.12111111111111113	0.11213941819010062	-0.5535265520788891	0.0	0.09554282451514354	-0.553524562609128	0.0	0.21713517849948646	-0.665722694800464	0.0	0.20101247009224382	-0.8181724577945114	0.0	0.2596055876321172	-0.8375922924487864	0.0	0.2454847227361131	-0.8457558214548544	0.0	0.18824322013822042	-0.8392981494755751	0.0	0.12633597158516816	-0.5565058510579121	0.0	0.08374146868048239	-0.7079236938287037	0.0	0.13574405141691184	-0.8257746522653943	0.0	0.03108460675490976	-0.8231206184700132	0.0	0.052929269495462936	-0.7977830780985946	0.0	-0.05840096325469087	-0.8058988220286277	0.0	0.16271591570271893	-0.36683267505517014	0.0	0.18494410851137713	-0.2795599701328049	0.0	0.20501604522295586	-0.33220638663587304	0.0	0.11272873391895999	-0.3829217869060929	0.0	0.08437384629695166	-0.47012441556184714	0.0	0.07749647574286513	-0.5347944031003083	0.0	0.20104395781318282	-0.3985815996925752	0.0	0.26732916324917894	-0.46466489256586274	0.0	0.3396299740129911	-0.515645070304214	0.0
